# xmcd
#
# Track frame offsets:
#	150
#	18838
#	55484
#	78565
#	109284
#	125691
#	148212
#	185206
#	213142
#	247419
#	266806
#	304936
#
# Disc length: 4603 seconds
#
# Revision: 0
# Processed by: cddbd v1.5.2PL0 Copyright (c) Steve Scherf et al.
# Submitted via: EZCDAudioConverter 2.1.7.1
#
DISCID=c111f90c
DTITLE=V/A - The Blue Collection 1/2
DYEAR=1900
DGENRE=
TTITLE0=Atella - The Monster
TTITLE1=Freeform Five featuring Róisín Murphy - Leviathan
TTITLE2=Deadbots - UFRST
TTITLE3=Julian Sanza featuring Future Feelings - The Feeling
TTITLE4=Blende - Rikki [Crayon Remix]
TTITLE5=Volta Cab - Smoke Some Kill
TTITLE6=Michoacan - The Kingdom Of Heaven Is At Hand
TTITLE7=Satin Jackets - Night Keys
TTITLE8=Blamma! Blamma! featuring Kristina Train - Zsa Zsa
TTITLE9=Nteibint featuring Stella - Never Without You
TTITLE10=Pete Oak featuring Emeron and Fox - N.O.V.A.
TTITLE11=Eelke Kleijn - A Tale Of Two Lovers
EXTD=
EXTT0=
EXTT1=
EXTT2=
EXTT3=
EXTT4=
EXTT5=
EXTT6=
EXTT7=
EXTT8=
EXTT9=
EXTT10=
EXTT11=
PLAYORDER=
